<svg xmlns="http://www.w3.org/2000/svg" width="911" height="475" fill="none"><path fill="#000" d="M.958.792a.792.792 0 1 0 0-1.583.792.792 0 0 0 0 1.583Zm25 0a.792.792 0 1 0 0-1.583.792.792 0 0 0 0 1.583Zm25 0a.792.792 0 1 0 0-1.583.792.792 0 0 0 0 1.583Zm25 0a.792.792 0 1 0 0-1.583.792.792 0 0 0 0 1.583Zm25 0a.791.791 0 1 0 .001-1.583.791.791 0 0 0-.001 1.583Zm25 0a.791.791 0 1 0 .001-1.583.791.791 0 0 0-.001 1.583Zm25 0a.791.791 0 1 0 .001-1.583.791.791 0 0 0-.001 1.583Zm25 0a.791.791 0 1 0 .001-1.583.791.791 0 0 0-.001 1.583Zm25 0a.791.791 0 1 0 .001-1.583.791.791 0 0 0-.001 1.583Zm25 0a.791.791 0 1 0 .001-1.583.791.791 0 0 0-.001 1.583Zm25 0a.791.791 0 1 0 .001-1.583.791.791 0 0 0-.001 1.583Zm25 0a.791.791 0 1 0 .001-1.583.791.791 0 0 0-.001 1.583Zm25 0a.791.791 0 1 0 .001-1.583.791.791 0 0 0-.001 1.583Zm25 0a.791.791 0 1 0 .001-1.583.791.791 0 0 0-.001 1.583Zm25 0a.791.791 0 1 0 .001-1.583.791.791 0 0 0-.001 1.583Zm25 0a.791.791 0 1 0 .001-1.583.791.791 0 0 0-.001 1.583Zm25 0a.791.791 0 1 0 .001-1.583.791.791 0 0 0-.001 1.583Zm25 0a.791.791 0 1 0 .001-1.583.791.791 0 0 0-.001 1.583Zm25 0a.791.791 0 1 0 .001-1.583.791.791 0 0 0-.001 1.583Zm25 0a.791.791 0 1 0 .001-1.583.791.791 0 0 0-.001 1.583Zm-475 25a.792.792 0 1 0 0-1.583.792.792 0 0 0 0 1.583Zm25 0a.792.792 0 1 0 0-1.583.792.792 0 0 0 0 1.583Zm25 0a.792.792 0 1 0 0-1.583.792.792 0 0 0 0 1.583Zm25 0a.792.792 0 1 0 0-1.583.792.792 0 0 0 0 1.583Zm25 0a.791.791 0 1 0 .001-1.583.791.791 0 0 0-.001 1.583Zm25 0a.791.791 0 1 0 .001-1.583.791.791 0 0 0-.001 1.583Zm25 0a.791.791 0 1 0 .001-1.583.791.791 0 0 0-.001 1.583Zm25 0a.791.791 0 1 0 .001-1.583.791.791 0 0 0-.001 1.583Zm25 0a.791.791 0 1 0 .001-1.583.791.791 0 0 0-.001 1.583Zm25 0a.791.791 0 1 0 .001-1.583.791.791 0 0 0-.001 1.583Zm25 0a.791.791 0 1 0 .001-1.583.791.791 0 0 0-.001 1.583Zm25 0a.791.791 0 1 0 .001-1.583.791.791 0 0 0-.001 1.583Zm25 0a.791.791 0 1 0 .001-1.583.791.791 0 0 0-.001 1.583Zm25 0a.791.791 0 1 0 .001-1.583.791.791 0 0 0-.001 1.583Zm25 0a.791.791 0 1 0 .001-1.583.791.791 0 0 0-.001 1.583Zm25 0a.791.791 0 1 0 .001-1.583.791.791 0 0 0-.001 1.583Zm25 0a.791.791 0 1 0 .001-1.583.791.791 0 0 0-.001 1.583Zm25 0a.791.791 0 1 0 .001-1.583.791.791 0 0 0-.001 1.583Zm25 0a.791.791 0 1 0 .001-1.583.791.791 0 0 0-.001 1.583Zm25 0a.791.791 0 1 0 .001-1.583.791.791 0 0 0-.001 1.583Zm-475 25a.792.792 0 1 0 0-1.583.792.792 0 0 0 0 1.583Zm25 0a.792.792 0 1 0 0-1.583.792.792 0 0 0 0 1.583Zm25 0a.792.792 0 1 0 0-1.583.792.792 0 0 0 0 1.583Zm25 0a.792.792 0 1 0 0-1.583.792.792 0 0 0 0 1.583Zm25 0a.791.791 0 1 0 .001-1.583.791.791 0 0 0-.001 1.583Zm25 0a.791.791 0 1 0 .001-1.583.791.791 0 0 0-.001 1.583Zm25 0a.791.791 0 1 0 .001-1.583.791.791 0 0 0-.001 1.583Zm25 0a.791.791 0 1 0 .001-1.583.791.791 0 0 0-.001 1.583Zm25 0a.791.791 0 1 0 .001-1.583.791.791 0 0 0-.001 1.583Zm25 0a.791.791 0 1 0 .001-1.583.791.791 0 0 0-.001 1.583Zm25 0a.791.791 0 1 0 .001-1.583.791.791 0 0 0-.001 1.583Zm25 0a.791.791 0 1 0 .001-1.583.791.791 0 0 0-.001 1.583Zm25 0a.791.791 0 1 0 .001-1.583.791.791 0 0 0-.001 1.583Zm25 0a.791.791 0 1 0 .001-1.583.791.791 0 0 0-.001 1.583Zm25 0a.791.791 0 1 0 .001-1.583.791.791 0 0 0-.001 1.583Zm25 0a.791.791 0 1 0 .001-1.583.791.791 0 0 0-.001 1.583Zm25 0a.791.791 0 1 0 .001-1.583.791.791 0 0 0-.001 1.583Zm25 0a.791.791 0 1 0 .001-1.583.791.791 0 0 0-.001 1.583Zm25 0a.791.791 0 1 0 .001-1.583.791.791 0 0 0-.001 1.583Zm25 0a.791.791 0 1 0 .001-1.583.791.791 0 0 0-.001 1.583Zm-475 25a.792.792 0 1 0 0-1.583.792.792 0 0 0 0 1.583Zm25 0a.792.792 0 1 0 0-1.583.792.792 0 0 0 0 1.583Zm25 0a.792.792 0 1 0 0-1.583.792.792 0 0 0 0 1.583Zm25 0a.792.792 0 1 0 0-1.583.792.792 0 0 0 0 1.583Zm25 0a.791.791 0 1 0 .001-1.583.791.791 0 0 0-.001 1.583Zm25 0a.791.791 0 1 0 .001-1.583.791.791 0 0 0-.001 1.583Zm25 0a.791.791 0 1 0 .001-1.583.791.791 0 0 0-.001 1.583Zm25 0a.791.791 0 1 0 .001-1.583.791.791 0 0 0-.001 1.583Zm25 0a.791.791 0 1 0 .001-1.583.791.791 0 0 0-.001 1.583Zm25 0a.791.791 0 1 0 .001-1.583.791.791 0 0 0-.001 1.583Zm25 0a.791.791 0 1 0 .001-1.583.791.791 0 0 0-.001 1.583Zm25 0a.791.791 0 1 0 .001-1.583.791.791 0 0 0-.001 1.583Zm25 0a.791.791 0 1 0 .001-1.583.791.791 0 0 0-.001 1.583Zm25 0a.791.791 0 1 0 .001-1.583.791.791 0 0 0-.001 1.583Zm25 0a.791.791 0 1 0 .001-1.583.791.791 0 0 0-.001 1.583Zm25 0a.791.791 0 1 0 .001-1.583.791.791 0 0 0-.001 1.583Zm25 0a.791.791 0 1 0 .001-1.583.791.791 0 0 0-.001 1.583Zm25 0a.791.791 0 1 0 .001-1.583.791.791 0 0 0-.001 1.583Zm25 0a.791.791 0 1 0 .001-1.583.791.791 0 0 0-.001 1.583Zm25 0a.791.791 0 1 0 .001-1.583.791.791 0 0 0-.001 1.583Zm-475 25a.792.792 0 1 0 0-1.584.792.792 0 0 0 0 1.584Zm25 0a.792.792 0 1 0 0-1.584.792.792 0 0 0 0 1.584Zm25 0a.792.792 0 1 0 0-1.584.792.792 0 0 0 0 1.584Zm25 0a.792.792 0 1 0 0-1.584.792.792 0 0 0 0 1.584Zm25 0a.792.792 0 1 0 0-1.584.792.792 0 0 0 0 1.584Zm25 0a.792.792 0 1 0 0-1.584.792.792 0 0 0 0 1.584Zm25 0a.792.792 0 1 0 0-1.584.792.792 0 0 0 0 1.584Zm25 0a.792.792 0 1 0 0-1.584.792.792 0 0 0 0 1.584Zm25 0a.792.792 0 1 0 0-1.584.792.792 0 0 0 0 1.584Zm25 0a.792.792 0 1 0 0-1.584.792.792 0 0 0 0 1.584Zm25 0a.792.792 0 1 0 0-1.584.792.792 0 0 0 0 1.584Zm25 0a.792.792 0 1 0 0-1.584.792.792 0 0 0 0 1.584Zm25 0a.792.792 0 1 0 0-1.584.792.792 0 0 0 0 1.584Zm25 0a.792.792 0 1 0 0-1.584.792.792 0 0 0 0 1.584Zm25 0a.792.792 0 1 0 0-1.584.792.792 0 0 0 0 1.584Zm25 0a.792.792 0 1 0 0-1.584.792.792 0 0 0 0 1.584Zm25 0a.792.792 0 1 0 0-1.584.792.792 0 0 0 0 1.584Zm25 0a.792.792 0 1 0 0-1.584.792.792 0 0 0 0 1.584Zm25 0a.792.792 0 1 0 0-1.584.792.792 0 0 0 0 1.584Zm25 0a.792.792 0 1 0 0-1.584.792.792 0 0 0 0 1.584Zm-475 25a.792.792 0 1 0 0-1.584.792.792 0 0 0 0 1.584Zm25 0a.792.792 0 1 0 0-1.584.792.792 0 0 0 0 1.584Zm25 0a.792.792 0 1 0 0-1.584.792.792 0 0 0 0 1.584Zm25 0a.792.792 0 1 0 0-1.584.792.792 0 0 0 0 1.584Zm25 0a.792.792 0 1 0 0-1.584.792.792 0 0 0 0 1.584Zm25 0a.792.792 0 1 0 0-1.584.792.792 0 0 0 0 1.584Zm25 0a.792.792 0 1 0 0-1.584.792.792 0 0 0 0 1.584Zm25 0a.792.792 0 1 0 0-1.584.792.792 0 0 0 0 1.584Zm25 0a.792.792 0 1 0 0-1.584.792.792 0 0 0 0 1.584Zm25 0a.792.792 0 1 0 0-1.584.792.792 0 0 0 0 1.584Zm25 0a.792.792 0 1 0 0-1.584.792.792 0 0 0 0 1.584Zm25 0a.792.792 0 1 0 0-1.584.792.792 0 0 0 0 1.584Zm25 0a.792.792 0 1 0 0-1.584.792.792 0 0 0 0 1.584Zm25 0a.792.792 0 1 0 0-1.584.792.792 0 0 0 0 1.584Zm25 0a.792.792 0 1 0 0-1.584.792.792 0 0 0 0 1.584Zm25 0a.792.792 0 1 0 0-1.584.792.792 0 0 0 0 1.584Zm25 0a.792.792 0 1 0 0-1.584.792.792 0 0 0 0 1.584Zm25 0a.792.792 0 1 0 0-1.584.792.792 0 0 0 0 1.584Zm25 0a.792.792 0 1 0 0-1.584.792.792 0 0 0 0 1.584Zm25 0a.792.792 0 1 0 0-1.584.792.792 0 0 0 0 1.584Zm-475 25a.792.792 0 1 0 0-1.584.792.792 0 0 0 0 1.584Zm25 0a.792.792 0 1 0 0-1.584.792.792 0 0 0 0 1.584Zm25 0a.792.792 0 1 0 0-1.584.792.792 0 0 0 0 1.584Zm25 0a.792.792 0 1 0 0-1.584.792.792 0 0 0 0 1.584Zm25 0a.792.792 0 1 0 0-1.584.792.792 0 0 0 0 1.584Zm25 0a.792.792 0 1 0 0-1.584.792.792 0 0 0 0 1.584Zm25 0a.792.792 0 1 0 0-1.584.792.792 0 0 0 0 1.584Zm25 0a.792.792 0 1 0 0-1.584.792.792 0 0 0 0 1.584Zm25 0a.792.792 0 1 0 0-1.584.792.792 0 0 0 0 1.584Zm25 0a.792.792 0 1 0 0-1.584.792.792 0 0 0 0 1.584Zm25 0a.792.792 0 1 0 0-1.584.792.792 0 0 0 0 1.584Zm25 0a.792.792 0 1 0 0-1.584.792.792 0 0 0 0 1.584Zm25 0a.792.792 0 1 0 0-1.584.792.792 0 0 0 0 1.584Zm25 0a.792.792 0 1 0 0-1.584.792.792 0 0 0 0 1.584Zm25 0a.792.792 0 1 0 0-1.584.792.792 0 0 0 0 1.584Zm25 0a.792.792 0 1 0 0-1.584.792.792 0 0 0 0 1.584Zm25 0a.792.792 0 1 0 0-1.584.792.792 0 0 0 0 1.584Zm25 0a.792.792 0 1 0 0-1.584.792.792 0 0 0 0 1.584Zm25 0a.792.792 0 1 0 0-1.584.792.792 0 0 0 0 1.584Zm25 0a.792.792 0 1 0 0-1.584.792.792 0 0 0 0 1.584Zm-475 25a.792.792 0 1 0 0-1.584.792.792 0 0 0 0 1.584Zm25 0a.792.792 0 1 0 0-1.584.792.792 0 0 0 0 1.584Zm25 0a.792.792 0 1 0 0-1.584.792.792 0 0 0 0 1.584Zm25 0a.792.792 0 1 0 0-1.584.792.792 0 0 0 0 1.584Zm25 0a.792.792 0 1 0 0-1.584.792.792 0 0 0 0 1.584Zm25 0a.792.792 0 1 0 0-1.584.792.792 0 0 0 0 1.584Zm25 0a.792.792 0 1 0 0-1.584.792.792 0 0 0 0 1.584Zm25 0a.792.792 0 1 0 0-1.584.792.792 0 0 0 0 1.584Zm25 0a.792.792 0 1 0 0-1.584.792.792 0 0 0 0 1.584Zm25 0a.792.792 0 1 0 0-1.584.792.792 0 0 0 0 1.584Zm25 0a.792.792 0 1 0 0-1.584.792.792 0 0 0 0 1.584Zm25 0a.792.792 0 1 0 0-1.584.792.792 0 0 0 0 1.584Zm25 0a.792.792 0 1 0 0-1.584.792.792 0 0 0 0 1.584Zm25 0a.792.792 0 1 0 0-1.584.792.792 0 0 0 0 1.584Zm25 0a.792.792 0 1 0 0-1.584.792.792 0 0 0 0 1.584Zm25 0a.792.792 0 1 0 0-1.584.792.792 0 0 0 0 1.584Zm25 0a.792.792 0 1 0 0-1.584.792.792 0 0 0 0 1.584Zm25 0a.792.792 0 1 0 0-1.584.792.792 0 0 0 0 1.584Zm25 0a.792.792 0 1 0 0-1.584.792.792 0 0 0 0 1.584Zm25 0a.792.792 0 1 0 0-1.584.792.792 0 0 0 0 1.584Zm-475 25a.792.792 0 1 0 0-1.584.792.792 0 0 0 0 1.584Zm25 0a.792.792 0 1 0 0-1.584.792.792 0 0 0 0 1.584Zm25 0a.792.792 0 1 0 0-1.584.792.792 0 0 0 0 1.584Zm25 0a.792.792 0 1 0 0-1.584.792.792 0 0 0 0 1.584Zm25 0a.792.792 0 1 0 0-1.584.792.792 0 0 0 0 1.584Zm25 0a.792.792 0 1 0 0-1.584.792.792 0 0 0 0 1.584Zm25 0a.792.792 0 1 0 0-1.584.792.792 0 0 0 0 1.584Zm25 0a.792.792 0 1 0 0-1.584.792.792 0 0 0 0 1.584Zm25 0a.792.792 0 1 0 0-1.584.792.792 0 0 0 0 1.584Zm25 0a.792.792 0 1 0 0-1.584.792.792 0 0 0 0 1.584Zm25 0a.792.792 0 1 0 0-1.584.792.792 0 0 0 0 1.584Zm25 0a.792.792 0 1 0 0-1.584.792.792 0 0 0 0 1.584Zm25 0a.792.792 0 1 0 0-1.584.792.792 0 0 0 0 1.584Zm25 0a.792.792 0 1 0 0-1.584.792.792 0 0 0 0 1.584Zm25 0a.792.792 0 1 0 0-1.584.792.792 0 0 0 0 1.584Zm25 0a.792.792 0 1 0 0-1.584.792.792 0 0 0 0 1.584Zm25 0a.792.792 0 1 0 0-1.584.792.792 0 0 0 0 1.584Zm25 0a.792.792 0 1 0 0-1.584.792.792 0 0 0 0 1.584Zm25 0a.792.792 0 1 0 0-1.584.792.792 0 0 0 0 1.584Zm25 0a.792.792 0 1 0 0-1.584.792.792 0 0 0 0 1.584Zm-475 25a.792.792 0 1 0 0-1.584.792.792 0 0 0 0 1.584Zm25 0a.792.792 0 1 0 0-1.584.792.792 0 0 0 0 1.584Zm25 0a.792.792 0 1 0 0-1.584.792.792 0 0 0 0 1.584Zm25 0a.792.792 0 1 0 0-1.584.792.792 0 0 0 0 1.584Zm25 0a.792.792 0 1 0 0-1.584.792.792 0 0 0 0 1.584Zm25 0a.792.792 0 1 0 0-1.584.792.792 0 0 0 0 1.584Zm25 0a.792.792 0 1 0 0-1.584.792.792 0 0 0 0 1.584Zm25 0a.792.792 0 1 0 0-1.584.792.792 0 0 0 0 1.584Zm25 0a.792.792 0 1 0 0-1.584.792.792 0 0 0 0 1.584Zm25 0a.792.792 0 1 0 0-1.584.792.792 0 0 0 0 1.584Zm25 0a.792.792 0 1 0 0-1.584.792.792 0 0 0 0 1.584Zm25 0a.792.792 0 1 0 0-1.584.792.792 0 0 0 0 1.584Zm25 0a.792.792 0 1 0 0-1.584.792.792 0 0 0 0 1.584Zm25 0a.792.792 0 1 0 0-1.584.792.792 0 0 0 0 1.584Zm25 0a.792.792 0 1 0 0-1.584.792.792 0 0 0 0 1.584Zm25 0a.792.792 0 1 0 0-1.584.792.792 0 0 0 0 1.584Zm25 0a.792.792 0 1 0 0-1.584.792.792 0 0 0 0 1.584Zm25 0a.792.792 0 1 0 0-1.584.792.792 0 0 0 0 1.584Zm25 0a.792.792 0 1 0 0-1.584.792.792 0 0 0 0 1.584Zm25 0a.792.792 0 1 0 0-1.584.792.792 0 0 0 0 1.584Zm-475 25a.792.792 0 1 0 0-1.584.792.792 0 0 0 0 1.584Zm25 0a.792.792 0 1 0 0-1.584.792.792 0 0 0 0 1.584Zm25 0a.792.792 0 1 0 0-1.584.792.792 0 0 0 0 1.584Zm25 0a.792.792 0 1 0 0-1.584.792.792 0 0 0 0 1.584Zm25 0a.792.792 0 1 0 0-1.584.792.792 0 0 0 0 1.584Zm25 0a.792.792 0 1 0 0-1.584.792.792 0 0 0 0 1.584Zm25 0a.792.792 0 1 0 0-1.584.792.792 0 0 0 0 1.584Zm25 0a.792.792 0 1 0 0-1.584.792.792 0 0 0 0 1.584Zm25 0a.792.792 0 1 0 0-1.584.792.792 0 0 0 0 1.584Zm25 0a.792.792 0 1 0 0-1.584.792.792 0 0 0 0 1.584Zm25 0a.792.792 0 1 0 0-1.584.792.792 0 0 0 0 1.584Zm25 0a.792.792 0 1 0 0-1.584.792.792 0 0 0 0 1.584Zm25 0a.792.792 0 1 0 0-1.584.792.792 0 0 0 0 1.584Zm25 0a.792.792 0 1 0 0-1.584.792.792 0 0 0 0 1.584Zm25 0a.792.792 0 1 0 0-1.584.792.792 0 0 0 0 1.584Zm25 0a.792.792 0 1 0 0-1.584.792.792 0 0 0 0 1.584Zm25 0a.792.792 0 1 0 0-1.584.792.792 0 0 0 0 1.584Zm25 0a.792.792 0 1 0 0-1.584.792.792 0 0 0 0 1.584Zm25 0a.792.792 0 1 0 0-1.584.792.792 0 0 0 0 1.584Zm25 0a.792.792 0 1 0 0-1.584.792.792 0 0 0 0 1.584Zm-475 25a.792.792 0 1 0 0-1.584.792.792 0 0 0 0 1.584Zm25 0a.792.792 0 1 0 0-1.584.792.792 0 0 0 0 1.584Zm25 0a.792.792 0 1 0 0-1.584.792.792 0 0 0 0 1.584Zm25 0a.792.792 0 1 0 0-1.584.792.792 0 0 0 0 1.584Zm25 0a.792.792 0 1 0 0-1.584.792.792 0 0 0 0 1.584Zm25 0a.792.792 0 1 0 0-1.584.792.792 0 0 0 0 1.584Zm25 0a.792.792 0 1 0 0-1.584.792.792 0 0 0 0 1.584Zm25 0a.792.792 0 1 0 0-1.584.792.792 0 0 0 0 1.584Zm25 0a.792.792 0 1 0 0-1.584.792.792 0 0 0 0 1.584Zm25 0a.792.792 0 1 0 0-1.584.792.792 0 0 0 0 1.584Zm25 0a.792.792 0 1 0 0-1.584.792.792 0 0 0 0 1.584Zm25 0a.792.792 0 1 0 0-1.584.792.792 0 0 0 0 1.584Zm25 0a.792.792 0 1 0 0-1.584.792.792 0 0 0 0 1.584Zm25 0a.792.792 0 1 0 0-1.584.792.792 0 0 0 0 1.584Zm25 0a.792.792 0 1 0 0-1.584.792.792 0 0 0 0 1.584Zm25 0a.792.792 0 1 0 0-1.584.792.792 0 0 0 0 1.584Zm25 0a.792.792 0 1 0 0-1.584.792.792 0 0 0 0 1.584Zm25 0a.792.792 0 1 0 0-1.584.792.792 0 0 0 0 1.584Zm25 0a.792.792 0 1 0 0-1.584.792.792 0 0 0 0 1.584Zm25 0a.792.792 0 1 0 0-1.584.792.792 0 0 0 0 1.584Zm-475 25a.792.792 0 1 0 0-1.584.792.792 0 0 0 0 1.584Zm25 0a.792.792 0 1 0 0-1.584.792.792 0 0 0 0 1.584Zm25 0a.792.792 0 1 0 0-1.584.792.792 0 0 0 0 1.584Zm25 0a.792.792 0 1 0 0-1.584.792.792 0 0 0 0 1.584Zm25 0a.792.792 0 1 0 0-1.584.792.792 0 0 0 0 1.584Zm25 0a.792.792 0 1 0 0-1.584.792.792 0 0 0 0 1.584Zm25 0a.792.792 0 1 0 0-1.584.792.792 0 0 0 0 1.584Zm25 0a.792.792 0 1 0 0-1.584.792.792 0 0 0 0 1.584Zm25 0a.792.792 0 1 0 0-1.584.792.792 0 0 0 0 1.584Zm25 0a.792.792 0 1 0 0-1.584.792.792 0 0 0 0 1.584Zm25 0a.792.792 0 1 0 0-1.584.792.792 0 0 0 0 1.584Zm25 0a.792.792 0 1 0 0-1.584.792.792 0 0 0 0 1.584Zm25 0a.792.792 0 1 0 0-1.584.792.792 0 0 0 0 1.584Zm25 0a.792.792 0 1 0 0-1.584.792.792 0 0 0 0 1.584Zm25 0a.792.792 0 1 0 0-1.584.792.792 0 0 0 0 1.584Zm25 0a.792.792 0 1 0 0-1.584.792.792 0 0 0 0 1.584Zm25 0a.792.792 0 1 0 0-1.584.792.792 0 0 0 0 1.584Zm25 0a.792.792 0 1 0 0-1.584.792.792 0 0 0 0 1.584Zm25 0a.792.792 0 1 0 0-1.584.792.792 0 0 0 0 1.584Zm25 0a.792.792 0 1 0 0-1.584.792.792 0 0 0 0 1.584Zm-475 25a.792.792 0 1 0 0-1.584.792.792 0 0 0 0 1.584Zm25 0a.792.792 0 1 0 0-1.584.792.792 0 0 0 0 1.584Zm25 0a.792.792 0 1 0 0-1.584.792.792 0 0 0 0 1.584Zm25 0a.792.792 0 1 0 0-1.584.792.792 0 0 0 0 1.584Zm25 0a.792.792 0 1 0 0-1.584.792.792 0 0 0 0 1.584Zm25 0a.792.792 0 1 0 0-1.584.792.792 0 0 0 0 1.584Zm25 0a.792.792 0 1 0 0-1.584.792.792 0 0 0 0 1.584Zm25 0a.792.792 0 1 0 0-1.584.792.792 0 0 0 0 1.584Zm25 0a.792.792 0 1 0 0-1.584.792.792 0 0 0 0 1.584Zm25 0a.792.792 0 1 0 0-1.584.792.792 0 0 0 0 1.584Zm25 0a.792.792 0 1 0 0-1.584.792.792 0 0 0 0 1.584Zm25 0a.792.792 0 1 0 0-1.584.792.792 0 0 0 0 1.584Zm25 0a.792.792 0 1 0 0-1.584.792.792 0 0 0 0 1.584Zm25 0a.792.792 0 1 0 0-1.584.792.792 0 0 0 0 1.584Zm25 0a.792.792 0 1 0 0-1.584.792.792 0 0 0 0 1.584Zm25 0a.792.792 0 1 0 0-1.584.792.792 0 0 0 0 1.584Zm25 0a.792.792 0 1 0 0-1.584.792.792 0 0 0 0 1.584Zm25 0a.792.792 0 1 0 0-1.584.792.792 0 0 0 0 1.584Zm25 0a.792.792 0 1 0 0-1.584.792.792 0 0 0 0 1.584Zm25 0a.792.792 0 1 0 0-1.584.792.792 0 0 0 0 1.584Zm-475 25a.792.792 0 1 0 0-1.584.792.792 0 0 0 0 1.584Zm25 0a.792.792 0 1 0 0-1.584.792.792 0 0 0 0 1.584Zm25 0a.792.792 0 1 0 0-1.584.792.792 0 0 0 0 1.584Zm25 0a.792.792 0 1 0 0-1.584.792.792 0 0 0 0 1.584Zm25 0a.792.792 0 1 0 0-1.584.792.792 0 0 0 0 1.584Zm25 0a.792.792 0 1 0 0-1.584.792.792 0 0 0 0 1.584Zm25 0a.792.792 0 1 0 0-1.584.792.792 0 0 0 0 1.584Zm25 0a.792.792 0 1 0 0-1.584.792.792 0 0 0 0 1.584Zm25 0a.792.792 0 1 0 0-1.584.792.792 0 0 0 0 1.584Zm25 0a.792.792 0 1 0 0-1.584.792.792 0 0 0 0 1.584Zm25 0a.792.792 0 1 0 0-1.584.792.792 0 0 0 0 1.584Zm25 0a.792.792 0 1 0 0-1.584.792.792 0 0 0 0 1.584Zm25 0a.792.792 0 1 0 0-1.584.792.792 0 0 0 0 1.584Zm25 0a.792.792 0 1 0 0-1.584.792.792 0 0 0 0 1.584Zm25 0a.792.792 0 1 0 0-1.584.792.792 0 0 0 0 1.584Zm25 0a.792.792 0 1 0 0-1.584.792.792 0 0 0 0 1.584Zm25 0a.792.792 0 1 0 0-1.584.792.792 0 0 0 0 1.584Zm25 0a.792.792 0 1 0 0-1.584.792.792 0 0 0 0 1.584Zm25 0a.792.792 0 1 0 0-1.584.792.792 0 0 0 0 1.584Zm25 0a.792.792 0 1 0 0-1.584.792.792 0 0 0 0 1.584Zm-475 25a.791.791 0 1 0 0-1.583.791.791 0 0 0 0 1.583Zm25 0a.791.791 0 1 0 0-1.583.791.791 0 0 0 0 1.583Zm25 0a.791.791 0 1 0 0-1.583.791.791 0 0 0 0 1.583Zm25 0a.791.791 0 1 0 0-1.583.791.791 0 0 0 0 1.583Zm25 0a.791.791 0 1 0 .002-1.582.791.791 0 0 0-.002 1.582Zm25 0a.791.791 0 1 0 .002-1.582.791.791 0 0 0-.002 1.582Zm25 0a.791.791 0 1 0 .002-1.582.791.791 0 0 0-.002 1.582Zm25 0a.791.791 0 1 0 .002-1.582.791.791 0 0 0-.002 1.582Zm25 0a.791.791 0 1 0 .002-1.582.791.791 0 0 0-.002 1.582Zm25 0a.791.791 0 1 0 .002-1.582.791.791 0 0 0-.002 1.582Zm25 0a.791.791 0 1 0 .002-1.582.791.791 0 0 0-.002 1.582Zm25 0a.791.791 0 1 0 .002-1.582.791.791 0 0 0-.002 1.582Zm25 0a.791.791 0 1 0 .002-1.582.791.791 0 0 0-.002 1.582Zm25 0a.791.791 0 1 0 .002-1.582.791.791 0 0 0-.002 1.582Zm25 0a.791.791 0 1 0 .002-1.582.791.791 0 0 0-.002 1.582Zm25 0a.791.791 0 1 0 .002-1.582.791.791 0 0 0-.002 1.582Zm25 0a.791.791 0 1 0 .002-1.582.791.791 0 0 0-.002 1.582Zm25 0a.791.791 0 1 0 .002-1.582.791.791 0 0 0-.002 1.582Zm25 0a.791.791 0 1 0 .002-1.582.791.791 0 0 0-.002 1.582Zm25 0a.791.791 0 1 0 .002-1.582.791.791 0 0 0-.002 1.582Zm-475 25a.792.792 0 1 0 0-1.584.792.792 0 0 0 0 1.584Zm25 0a.792.792 0 1 0 0-1.584.792.792 0 0 0 0 1.584Zm25 0a.792.792 0 1 0 0-1.584.792.792 0 0 0 0 1.584Zm25 0a.792.792 0 1 0 0-1.584.792.792 0 0 0 0 1.584Zm25 0a.792.792 0 1 0 0-1.584.792.792 0 0 0 0 1.584Zm25 0a.792.792 0 1 0 0-1.584.792.792 0 0 0 0 1.584Zm25 0a.792.792 0 1 0 0-1.584.792.792 0 0 0 0 1.584Zm25 0a.792.792 0 1 0 0-1.584.792.792 0 0 0 0 1.584Zm25 0a.792.792 0 1 0 0-1.584.792.792 0 0 0 0 1.584Zm25 0a.792.792 0 1 0 0-1.584.792.792 0 0 0 0 1.584Zm25 0a.792.792 0 1 0 0-1.584.792.792 0 0 0 0 1.584Zm25 0a.792.792 0 1 0 0-1.584.792.792 0 0 0 0 1.584Zm25 0a.792.792 0 1 0 0-1.584.792.792 0 0 0 0 1.584Zm25 0a.792.792 0 1 0 0-1.584.792.792 0 0 0 0 1.584Zm25 0a.792.792 0 1 0 0-1.584.792.792 0 0 0 0 1.584Zm25 0a.792.792 0 1 0 0-1.584.792.792 0 0 0 0 1.584Zm25 0a.792.792 0 1 0 0-1.584.792.792 0 0 0 0 1.584Zm25 0a.792.792 0 1 0 0-1.584.792.792 0 0 0 0 1.584Zm25 0a.792.792 0 1 0 0-1.584.792.792 0 0 0 0 1.584Zm25 0a.792.792 0 1 0 0-1.584.792.792 0 0 0 0 1.584Zm-475 25a.791.791 0 1 0 0-1.583.791.791 0 0 0 0 1.583Zm25 0a.791.791 0 1 0 0-1.583.791.791 0 0 0 0 1.583Zm25 0a.791.791 0 1 0 0-1.583.791.791 0 0 0 0 1.583Zm25 0a.791.791 0 1 0 0-1.583.791.791 0 0 0 0 1.583Zm25 0a.791.791 0 1 0 .002-1.582.791.791 0 0 0-.002 1.582Zm25 0a.791.791 0 1 0 .002-1.582.791.791 0 0 0-.002 1.582Zm25 0a.791.791 0 1 0 .002-1.582.791.791 0 0 0-.002 1.582Zm25 0a.791.791 0 1 0 .002-1.582.791.791 0 0 0-.002 1.582Zm25 0a.791.791 0 1 0 .002-1.582.791.791 0 0 0-.002 1.582Zm25 0a.791.791 0 1 0 .002-1.582.791.791 0 0 0-.002 1.582Zm25 0a.791.791 0 1 0 .002-1.582.791.791 0 0 0-.002 1.582Zm25 0a.791.791 0 1 0 .002-1.582.791.791 0 0 0-.002 1.582Zm25 0a.791.791 0 1 0 .002-1.582.791.791 0 0 0-.002 1.582Zm25 0a.791.791 0 1 0 .002-1.582.791.791 0 0 0-.002 1.582Zm25 0a.791.791 0 1 0 .002-1.582.791.791 0 0 0-.002 1.582Zm25 0a.791.791 0 1 0 .002-1.582.791.791 0 0 0-.002 1.582Zm25 0a.791.791 0 1 0 .002-1.582.791.791 0 0 0-.002 1.582Zm25 0a.791.791 0 1 0 .002-1.582.791.791 0 0 0-.002 1.582Zm25 0a.791.791 0 1 0 .002-1.582.791.791 0 0 0-.002 1.582Zm25 0a.791.791 0 1 0 .002-1.582.791.791 0 0 0-.002 1.582Zm-475 25a.791.791 0 1 0 0-1.583.791.791 0 0 0 0 1.583Zm25 0a.791.791 0 1 0 0-1.583.791.791 0 0 0 0 1.583Zm25 0a.791.791 0 1 0 0-1.583.791.791 0 0 0 0 1.583Zm25 0a.791.791 0 1 0 0-1.583.791.791 0 0 0 0 1.583Zm25 0a.791.791 0 1 0 .002-1.582.791.791 0 0 0-.002 1.582Zm25 0a.791.791 0 1 0 .002-1.582.791.791 0 0 0-.002 1.582Zm25 0a.791.791 0 1 0 .002-1.582.791.791 0 0 0-.002 1.582Zm25 0a.791.791 0 1 0 .002-1.582.791.791 0 0 0-.002 1.582Zm25 0a.791.791 0 1 0 .002-1.582.791.791 0 0 0-.002 1.582Zm25 0a.791.791 0 1 0 .002-1.582.791.791 0 0 0-.002 1.582Zm25 0a.791.791 0 1 0 .002-1.582.791.791 0 0 0-.002 1.582Zm25 0a.791.791 0 1 0 .002-1.582.791.791 0 0 0-.002 1.582Zm25 0a.791.791 0 1 0 .002-1.582.791.791 0 0 0-.002 1.582Zm25 0a.791.791 0 1 0 .002-1.582.791.791 0 0 0-.002 1.582Zm25 0a.791.791 0 1 0 .002-1.582.791.791 0 0 0-.002 1.582Zm25 0a.791.791 0 1 0 .002-1.582.791.791 0 0 0-.002 1.582Zm25 0a.791.791 0 1 0 .002-1.582.791.791 0 0 0-.002 1.582Zm25 0a.791.791 0 1 0 .002-1.582.791.791 0 0 0-.002 1.582Zm25 0a.791.791 0 1 0 .002-1.582.791.791 0 0 0-.002 1.582Zm25 0a.791.791 0 1 0 .002-1.582.791.791 0 0 0-.002 1.582Zm-475 25a.791.791 0 1 0 0-1.583.791.791 0 0 0 0 1.583Zm25 0a.791.791 0 1 0 0-1.583.791.791 0 0 0 0 1.583Zm25 0a.791.791 0 1 0 0-1.583.791.791 0 0 0 0 1.583Zm25 0a.791.791 0 1 0 0-1.583.791.791 0 0 0 0 1.583Zm25 0a.791.791 0 1 0 .002-1.582.791.791 0 0 0-.002 1.582Zm25 0a.791.791 0 1 0 .002-1.582.791.791 0 0 0-.002 1.582Zm25 0a.791.791 0 1 0 .002-1.582.791.791 0 0 0-.002 1.582Zm25 0a.791.791 0 1 0 .002-1.582.791.791 0 0 0-.002 1.582Zm25 0a.791.791 0 1 0 .002-1.582.791.791 0 0 0-.002 1.582Zm25 0a.791.791 0 1 0 .002-1.582.791.791 0 0 0-.002 1.582Zm25 0a.791.791 0 1 0 .002-1.582.791.791 0 0 0-.002 1.582Zm25 0a.791.791 0 1 0 .002-1.582.791.791 0 0 0-.002 1.582Zm25 0a.791.791 0 1 0 .002-1.582.791.791 0 0 0-.002 1.582Zm25 0a.791.791 0 1 0 .002-1.582.791.791 0 0 0-.002 1.582Zm25 0a.791.791 0 1 0 .002-1.582.791.791 0 0 0-.002 1.582Zm25 0a.791.791 0 1 0 .002-1.582.791.791 0 0 0-.002 1.582Zm25 0a.791.791 0 1 0 .002-1.582.791.791 0 0 0-.002 1.582Zm25 0a.791.791 0 1 0 .002-1.582.791.791 0 0 0-.002 1.582Zm25 0a.791.791 0 1 0 .002-1.582.791.791 0 0 0-.002 1.582Zm25 0a.791.791 0 1 0 .002-1.582.791.791 0 0 0-.002 1.582Z"/><path fill="#000" d="M475.958.792a.791.791 0 1 0 .001-1.583.791.791 0 0 0-.001 1.583Zm25 0a.791.791 0 1 0 .001-1.583.791.791 0 0 0-.001 1.583Zm25 0a.791.791 0 1 0 .001-1.583.791.791 0 0 0-.001 1.583Zm25 0a.791.791 0 1 0 .001-1.583.791.791 0 0 0-.001 1.583Zm25 0a.791.791 0 1 0 .001-1.583.791.791 0 0 0-.001 1.583Zm25 0a.791.791 0 1 0 .001-1.583.791.791 0 0 0-.001 1.583Zm25 0a.791.791 0 1 0 .001-1.583.791.791 0 0 0-.001 1.583Zm25 0a.791.791 0 1 0 .001-1.583.791.791 0 0 0-.001 1.583Zm25 0a.791.791 0 1 0 .001-1.583.791.791 0 0 0-.001 1.583Zm25 0a.791.791 0 1 0 .001-1.583.791.791 0 0 0-.001 1.583Zm25 0a.791.791 0 1 0 .001-1.583.791.791 0 0 0-.001 1.583Zm25 0a.791.791 0 1 0 .001-1.583.791.791 0 0 0-.001 1.583Zm25 0a.791.791 0 1 0 .001-1.583.791.791 0 0 0-.001 1.583Zm25 0a.791.791 0 1 0 .001-1.583.791.791 0 0 0-.001 1.583Zm25 0a.791.791 0 1 0 .001-1.583.791.791 0 0 0-.001 1.583Zm25 0a.791.791 0 1 0 .001-1.583.791.791 0 0 0-.001 1.583Zm25 0a.791.791 0 1 0 .001-1.583.791.791 0 0 0-.001 1.583Zm25 0a.791.791 0 1 0 .001-1.583.791.791 0 0 0-.001 1.583Zm25 0a.791.791 0 1 0 .001-1.583.791.791 0 0 0-.001 1.583Zm25 0a.791.791 0 1 0 .001-1.583.791.791 0 0 0-.001 1.583Zm-475 25a.791.791 0 1 0 .001-1.583.791.791 0 0 0-.001 1.583Zm25 0a.791.791 0 1 0 .001-1.583.791.791 0 0 0-.001 1.583Zm25 0a.791.791 0 1 0 .001-1.583.791.791 0 0 0-.001 1.583Zm25 0a.791.791 0 1 0 .001-1.583.791.791 0 0 0-.001 1.583Zm25 0a.791.791 0 1 0 .001-1.583.791.791 0 0 0-.001 1.583Zm25 0a.791.791 0 1 0 .001-1.583.791.791 0 0 0-.001 1.583Zm25 0a.791.791 0 1 0 .001-1.583.791.791 0 0 0-.001 1.583Zm25 0a.791.791 0 1 0 .001-1.583.791.791 0 0 0-.001 1.583Zm25 0a.791.791 0 1 0 .001-1.583.791.791 0 0 0-.001 1.583Zm25 0a.791.791 0 1 0 .001-1.583.791.791 0 0 0-.001 1.583Zm25 0a.791.791 0 1 0 .001-1.583.791.791 0 0 0-.001 1.583Zm25 0a.791.791 0 1 0 .001-1.583.791.791 0 0 0-.001 1.583Zm25 0a.791.791 0 1 0 .001-1.583.791.791 0 0 0-.001 1.583Zm25 0a.791.791 0 1 0 .001-1.583.791.791 0 0 0-.001 1.583Zm25 0a.791.791 0 1 0 .001-1.583.791.791 0 0 0-.001 1.583Zm25 0a.791.791 0 1 0 .001-1.583.791.791 0 0 0-.001 1.583Zm25 0a.791.791 0 1 0 .001-1.583.791.791 0 0 0-.001 1.583Zm25 0a.791.791 0 1 0 .001-1.583.791.791 0 0 0-.001 1.583Zm25 0a.791.791 0 1 0 .001-1.583.791.791 0 0 0-.001 1.583Zm25 0a.791.791 0 1 0 .001-1.583.791.791 0 0 0-.001 1.583Zm-475 25a.791.791 0 1 0 .001-1.583.791.791 0 0 0-.001 1.583Zm25 0a.791.791 0 1 0 .001-1.583.791.791 0 0 0-.001 1.583Zm25 0a.791.791 0 1 0 .001-1.583.791.791 0 0 0-.001 1.583Zm25 0a.791.791 0 1 0 .001-1.583.791.791 0 0 0-.001 1.583Zm25 0a.791.791 0 1 0 .001-1.583.791.791 0 0 0-.001 1.583Zm25 0a.791.791 0 1 0 .001-1.583.791.791 0 0 0-.001 1.583Zm25 0a.791.791 0 1 0 .001-1.583.791.791 0 0 0-.001 1.583Zm25 0a.791.791 0 1 0 .001-1.583.791.791 0 0 0-.001 1.583Zm25 0a.791.791 0 1 0 .001-1.583.791.791 0 0 0-.001 1.583Zm25 0a.791.791 0 1 0 .001-1.583.791.791 0 0 0-.001 1.583Zm25 0a.791.791 0 1 0 .001-1.583.791.791 0 0 0-.001 1.583Zm25 0a.791.791 0 1 0 .001-1.583.791.791 0 0 0-.001 1.583Zm25 0a.791.791 0 1 0 .001-1.583.791.791 0 0 0-.001 1.583Zm25 0a.791.791 0 1 0 .001-1.583.791.791 0 0 0-.001 1.583Zm25 0a.791.791 0 1 0 .001-1.583.791.791 0 0 0-.001 1.583Zm25 0a.791.791 0 1 0 .001-1.583.791.791 0 0 0-.001 1.583Zm25 0a.791.791 0 1 0 .001-1.583.791.791 0 0 0-.001 1.583Zm25 0a.791.791 0 1 0 .001-1.583.791.791 0 0 0-.001 1.583Zm25 0a.791.791 0 1 0 .001-1.583.791.791 0 0 0-.001 1.583Zm25 0a.791.791 0 1 0 .001-1.583.791.791 0 0 0-.001 1.583Zm-475 25a.791.791 0 1 0 .001-1.583.791.791 0 0 0-.001 1.583Zm25 0a.791.791 0 1 0 .001-1.583.791.791 0 0 0-.001 1.583Zm25 0a.791.791 0 1 0 .001-1.583.791.791 0 0 0-.001 1.583Zm25 0a.791.791 0 1 0 .001-1.583.791.791 0 0 0-.001 1.583Zm25 0a.791.791 0 1 0 .001-1.583.791.791 0 0 0-.001 1.583Zm25 0a.791.791 0 1 0 .001-1.583.791.791 0 0 0-.001 1.583Zm25 0a.791.791 0 1 0 .001-1.583.791.791 0 0 0-.001 1.583Zm25 0a.791.791 0 1 0 .001-1.583.791.791 0 0 0-.001 1.583Zm25 0a.791.791 0 1 0 .001-1.583.791.791 0 0 0-.001 1.583Zm25 0a.791.791 0 1 0 .001-1.583.791.791 0 0 0-.001 1.583Zm25 0a.791.791 0 1 0 .001-1.583.791.791 0 0 0-.001 1.583Zm25 0a.791.791 0 1 0 .001-1.583.791.791 0 0 0-.001 1.583Zm25 0a.791.791 0 1 0 .001-1.583.791.791 0 0 0-.001 1.583Zm25 0a.791.791 0 1 0 .001-1.583.791.791 0 0 0-.001 1.583Zm25 0a.791.791 0 1 0 .001-1.583.791.791 0 0 0-.001 1.583Zm25 0a.791.791 0 1 0 .001-1.583.791.791 0 0 0-.001 1.583Zm25 0a.791.791 0 1 0 .001-1.583.791.791 0 0 0-.001 1.583Zm25 0a.791.791 0 1 0 .001-1.583.791.791 0 0 0-.001 1.583Zm25 0a.791.791 0 1 0 .001-1.583.791.791 0 0 0-.001 1.583Zm25 0a.791.791 0 1 0 .001-1.583.791.791 0 0 0-.001 1.583Zm-475 25a.792.792 0 1 0 0-1.584.792.792 0 0 0 0 1.584Zm25 0a.792.792 0 1 0 0-1.584.792.792 0 0 0 0 1.584Zm25 0a.792.792 0 1 0 0-1.584.792.792 0 0 0 0 1.584Zm25 0a.792.792 0 1 0 0-1.584.792.792 0 0 0 0 1.584Zm25 0a.792.792 0 1 0 0-1.584.792.792 0 0 0 0 1.584Zm25 0a.792.792 0 1 0 0-1.584.792.792 0 0 0 0 1.584Zm25 0a.792.792 0 1 0 0-1.584.792.792 0 0 0 0 1.584Zm25 0a.792.792 0 1 0 0-1.584.792.792 0 0 0 0 1.584Zm25 0a.792.792 0 1 0 0-1.584.792.792 0 0 0 0 1.584Zm25 0a.792.792 0 1 0 0-1.584.792.792 0 0 0 0 1.584Zm25 0a.792.792 0 1 0 0-1.584.792.792 0 0 0 0 1.584Zm25 0a.792.792 0 1 0 0-1.584.792.792 0 0 0 0 1.584Zm25 0a.792.792 0 1 0 0-1.584.792.792 0 0 0 0 1.584Zm25 0a.792.792 0 1 0 0-1.584.792.792 0 0 0 0 1.584Zm25 0a.792.792 0 1 0 0-1.584.792.792 0 0 0 0 1.584Zm25 0a.792.792 0 1 0 0-1.584.792.792 0 0 0 0 1.584Zm25 0a.792.792 0 1 0 0-1.584.792.792 0 0 0 0 1.584Zm25 0a.792.792 0 1 0 0-1.584.792.792 0 0 0 0 1.584Zm25 0a.792.792 0 1 0 0-1.584.792.792 0 0 0 0 1.584Zm25 0a.792.792 0 1 0 0-1.584.792.792 0 0 0 0 1.584Zm-475 25a.792.792 0 1 0 0-1.584.792.792 0 0 0 0 1.584Zm25 0a.792.792 0 1 0 0-1.584.792.792 0 0 0 0 1.584Zm25 0a.792.792 0 1 0 0-1.584.792.792 0 0 0 0 1.584Zm25 0a.792.792 0 1 0 0-1.584.792.792 0 0 0 0 1.584Zm25 0a.792.792 0 1 0 0-1.584.792.792 0 0 0 0 1.584Zm25 0a.792.792 0 1 0 0-1.584.792.792 0 0 0 0 1.584Zm25 0a.792.792 0 1 0 0-1.584.792.792 0 0 0 0 1.584Zm25 0a.792.792 0 1 0 0-1.584.792.792 0 0 0 0 1.584Zm25 0a.792.792 0 1 0 0-1.584.792.792 0 0 0 0 1.584Zm25 0a.792.792 0 1 0 0-1.584.792.792 0 0 0 0 1.584Zm25 0a.792.792 0 1 0 0-1.584.792.792 0 0 0 0 1.584Zm25 0a.792.792 0 1 0 0-1.584.792.792 0 0 0 0 1.584Zm25 0a.792.792 0 1 0 0-1.584.792.792 0 0 0 0 1.584Zm25 0a.792.792 0 1 0 0-1.584.792.792 0 0 0 0 1.584Zm25 0a.792.792 0 1 0 0-1.584.792.792 0 0 0 0 1.584Zm25 0a.792.792 0 1 0 0-1.584.792.792 0 0 0 0 1.584Zm25 0a.792.792 0 1 0 0-1.584.792.792 0 0 0 0 1.584Zm25 0a.792.792 0 1 0 0-1.584.792.792 0 0 0 0 1.584Zm25 0a.792.792 0 1 0 0-1.584.792.792 0 0 0 0 1.584Zm25 0a.792.792 0 1 0 0-1.584.792.792 0 0 0 0 1.584Zm-475 25a.792.792 0 1 0 0-1.584.792.792 0 0 0 0 1.584Zm25 0a.792.792 0 1 0 0-1.584.792.792 0 0 0 0 1.584Zm25 0a.792.792 0 1 0 0-1.584.792.792 0 0 0 0 1.584Zm25 0a.792.792 0 1 0 0-1.584.792.792 0 0 0 0 1.584Zm25 0a.792.792 0 1 0 0-1.584.792.792 0 0 0 0 1.584Zm25 0a.792.792 0 1 0 0-1.584.792.792 0 0 0 0 1.584Zm25 0a.792.792 0 1 0 0-1.584.792.792 0 0 0 0 1.584Zm25 0a.792.792 0 1 0 0-1.584.792.792 0 0 0 0 1.584Zm25 0a.792.792 0 1 0 0-1.584.792.792 0 0 0 0 1.584Zm25 0a.792.792 0 1 0 0-1.584.792.792 0 0 0 0 1.584Zm25 0a.792.792 0 1 0 0-1.584.792.792 0 0 0 0 1.584Zm25 0a.792.792 0 1 0 0-1.584.792.792 0 0 0 0 1.584Zm25 0a.792.792 0 1 0 0-1.584.792.792 0 0 0 0 1.584Zm25 0a.792.792 0 1 0 0-1.584.792.792 0 0 0 0 1.584Zm25 0a.792.792 0 1 0 0-1.584.792.792 0 0 0 0 1.584Zm25 0a.792.792 0 1 0 0-1.584.792.792 0 0 0 0 1.584Zm25 0a.792.792 0 1 0 0-1.584.792.792 0 0 0 0 1.584Zm25 0a.792.792 0 1 0 0-1.584.792.792 0 0 0 0 1.584Zm25 0a.792.792 0 1 0 0-1.584.792.792 0 0 0 0 1.584Zm25 0a.792.792 0 1 0 0-1.584.792.792 0 0 0 0 1.584Zm-475 25a.792.792 0 1 0 0-1.584.792.792 0 0 0 0 1.584Zm25 0a.792.792 0 1 0 0-1.584.792.792 0 0 0 0 1.584Zm25 0a.792.792 0 1 0 0-1.584.792.792 0 0 0 0 1.584Zm25 0a.792.792 0 1 0 0-1.584.792.792 0 0 0 0 1.584Zm25 0a.792.792 0 1 0 0-1.584.792.792 0 0 0 0 1.584Zm25 0a.792.792 0 1 0 0-1.584.792.792 0 0 0 0 1.584Zm25 0a.792.792 0 1 0 0-1.584.792.792 0 0 0 0 1.584Zm25 0a.792.792 0 1 0 0-1.584.792.792 0 0 0 0 1.584Zm25 0a.792.792 0 1 0 0-1.584.792.792 0 0 0 0 1.584Zm25 0a.792.792 0 1 0 0-1.584.792.792 0 0 0 0 1.584Zm25 0a.792.792 0 1 0 0-1.584.792.792 0 0 0 0 1.584Zm25 0a.792.792 0 1 0 0-1.584.792.792 0 0 0 0 1.584Zm25 0a.792.792 0 1 0 0-1.584.792.792 0 0 0 0 1.584Zm25 0a.792.792 0 1 0 0-1.584.792.792 0 0 0 0 1.584Zm25 0a.792.792 0 1 0 0-1.584.792.792 0 0 0 0 1.584Zm25 0a.792.792 0 1 0 0-1.584.792.792 0 0 0 0 1.584Zm25 0a.792.792 0 1 0 0-1.584.792.792 0 0 0 0 1.584Zm25 0a.792.792 0 1 0 0-1.584.792.792 0 0 0 0 1.584Zm25 0a.792.792 0 1 0 0-1.584.792.792 0 0 0 0 1.584Zm25 0a.792.792 0 1 0 0-1.584.792.792 0 0 0 0 1.584Zm-475 25a.792.792 0 1 0 0-1.584.792.792 0 0 0 0 1.584Zm25 0a.792.792 0 1 0 0-1.584.792.792 0 0 0 0 1.584Zm25 0a.792.792 0 1 0 0-1.584.792.792 0 0 0 0 1.584Zm25 0a.792.792 0 1 0 0-1.584.792.792 0 0 0 0 1.584Zm25 0a.792.792 0 1 0 0-1.584.792.792 0 0 0 0 1.584Zm25 0a.792.792 0 1 0 0-1.584.792.792 0 0 0 0 1.584Zm25 0a.792.792 0 1 0 0-1.584.792.792 0 0 0 0 1.584Zm25 0a.792.792 0 1 0 0-1.584.792.792 0 0 0 0 1.584Zm25 0a.792.792 0 1 0 0-1.584.792.792 0 0 0 0 1.584Zm25 0a.792.792 0 1 0 0-1.584.792.792 0 0 0 0 1.584Zm25 0a.792.792 0 1 0 0-1.584.792.792 0 0 0 0 1.584Zm25 0a.792.792 0 1 0 0-1.584.792.792 0 0 0 0 1.584Zm25 0a.792.792 0 1 0 0-1.584.792.792 0 0 0 0 1.584Zm25 0a.792.792 0 1 0 0-1.584.792.792 0 0 0 0 1.584Zm25 0a.792.792 0 1 0 0-1.584.792.792 0 0 0 0 1.584Zm25 0a.792.792 0 1 0 0-1.584.792.792 0 0 0 0 1.584Zm25 0a.792.792 0 1 0 0-1.584.792.792 0 0 0 0 1.584Zm25 0a.792.792 0 1 0 0-1.584.792.792 0 0 0 0 1.584Zm25 0a.792.792 0 1 0 0-1.584.792.792 0 0 0 0 1.584Zm25 0a.792.792 0 1 0 0-1.584.792.792 0 0 0 0 1.584Zm-475 25a.792.792 0 1 0 0-1.584.792.792 0 0 0 0 1.584Zm25 0a.792.792 0 1 0 0-1.584.792.792 0 0 0 0 1.584Zm25 0a.792.792 0 1 0 0-1.584.792.792 0 0 0 0 1.584Zm25 0a.792.792 0 1 0 0-1.584.792.792 0 0 0 0 1.584Zm25 0a.792.792 0 1 0 0-1.584.792.792 0 0 0 0 1.584Zm25 0a.792.792 0 1 0 0-1.584.792.792 0 0 0 0 1.584Zm25 0a.792.792 0 1 0 0-1.584.792.792 0 0 0 0 1.584Zm25 0a.792.792 0 1 0 0-1.584.792.792 0 0 0 0 1.584Zm25 0a.792.792 0 1 0 0-1.584.792.792 0 0 0 0 1.584Zm25 0a.792.792 0 1 0 0-1.584.792.792 0 0 0 0 1.584Zm25 0a.792.792 0 1 0 0-1.584.792.792 0 0 0 0 1.584Zm25 0a.792.792 0 1 0 0-1.584.792.792 0 0 0 0 1.584Zm25 0a.792.792 0 1 0 0-1.584.792.792 0 0 0 0 1.584Zm25 0a.792.792 0 1 0 0-1.584.792.792 0 0 0 0 1.584Zm25 0a.792.792 0 1 0 0-1.584.792.792 0 0 0 0 1.584Zm25 0a.792.792 0 1 0 0-1.584.792.792 0 0 0 0 1.584Zm25 0a.792.792 0 1 0 0-1.584.792.792 0 0 0 0 1.584Zm25 0a.792.792 0 1 0 0-1.584.792.792 0 0 0 0 1.584Zm25 0a.792.792 0 1 0 0-1.584.792.792 0 0 0 0 1.584Zm25 0a.792.792 0 1 0 0-1.584.792.792 0 0 0 0 1.584Zm-475 25a.792.792 0 1 0 0-1.584.792.792 0 0 0 0 1.584Zm25 0a.792.792 0 1 0 0-1.584.792.792 0 0 0 0 1.584Zm25 0a.792.792 0 1 0 0-1.584.792.792 0 0 0 0 1.584Zm25 0a.792.792 0 1 0 0-1.584.792.792 0 0 0 0 1.584Zm25 0a.792.792 0 1 0 0-1.584.792.792 0 0 0 0 1.584Zm25 0a.792.792 0 1 0 0-1.584.792.792 0 0 0 0 1.584Zm25 0a.792.792 0 1 0 0-1.584.792.792 0 0 0 0 1.584Zm25 0a.792.792 0 1 0 0-1.584.792.792 0 0 0 0 1.584Zm25 0a.792.792 0 1 0 0-1.584.792.792 0 0 0 0 1.584Zm25 0a.792.792 0 1 0 0-1.584.792.792 0 0 0 0 1.584Zm25 0a.792.792 0 1 0 0-1.584.792.792 0 0 0 0 1.584Zm25 0a.792.792 0 1 0 0-1.584.792.792 0 0 0 0 1.584Zm25 0a.792.792 0 1 0 0-1.584.792.792 0 0 0 0 1.584Zm25 0a.792.792 0 1 0 0-1.584.792.792 0 0 0 0 1.584Zm25 0a.792.792 0 1 0 0-1.584.792.792 0 0 0 0 1.584Zm25 0a.792.792 0 1 0 0-1.584.792.792 0 0 0 0 1.584Zm25 0a.792.792 0 1 0 0-1.584.792.792 0 0 0 0 1.584Zm25 0a.792.792 0 1 0 0-1.584.792.792 0 0 0 0 1.584Zm25 0a.792.792 0 1 0 0-1.584.792.792 0 0 0 0 1.584Zm25 0a.792.792 0 1 0 0-1.584.792.792 0 0 0 0 1.584Zm-475 25a.792.792 0 1 0 0-1.584.792.792 0 0 0 0 1.584Zm25 0a.792.792 0 1 0 0-1.584.792.792 0 0 0 0 1.584Zm25 0a.792.792 0 1 0 0-1.584.792.792 0 0 0 0 1.584Zm25 0a.792.792 0 1 0 0-1.584.792.792 0 0 0 0 1.584Zm25 0a.792.792 0 1 0 0-1.584.792.792 0 0 0 0 1.584Zm25 0a.792.792 0 1 0 0-1.584.792.792 0 0 0 0 1.584Zm25 0a.792.792 0 1 0 0-1.584.792.792 0 0 0 0 1.584Zm25 0a.792.792 0 1 0 0-1.584.792.792 0 0 0 0 1.584Zm25 0a.792.792 0 1 0 0-1.584.792.792 0 0 0 0 1.584Zm25 0a.792.792 0 1 0 0-1.584.792.792 0 0 0 0 1.584Zm25 0a.792.792 0 1 0 0-1.584.792.792 0 0 0 0 1.584Zm25 0a.792.792 0 1 0 0-1.584.792.792 0 0 0 0 1.584Zm25 0a.792.792 0 1 0 0-1.584.792.792 0 0 0 0 1.584Zm25 0a.792.792 0 1 0 0-1.584.792.792 0 0 0 0 1.584Zm25 0a.792.792 0 1 0 0-1.584.792.792 0 0 0 0 1.584Zm25 0a.792.792 0 1 0 0-1.584.792.792 0 0 0 0 1.584Zm25 0a.792.792 0 1 0 0-1.584.792.792 0 0 0 0 1.584Zm25 0a.792.792 0 1 0 0-1.584.792.792 0 0 0 0 1.584Zm25 0a.792.792 0 1 0 0-1.584.792.792 0 0 0 0 1.584Zm25 0a.792.792 0 1 0 0-1.584.792.792 0 0 0 0 1.584Zm-475 25a.792.792 0 1 0 0-1.584.792.792 0 0 0 0 1.584Zm25 0a.792.792 0 1 0 0-1.584.792.792 0 0 0 0 1.584Zm25 0a.792.792 0 1 0 0-1.584.792.792 0 0 0 0 1.584Zm25 0a.792.792 0 1 0 0-1.584.792.792 0 0 0 0 1.584Zm25 0a.792.792 0 1 0 0-1.584.792.792 0 0 0 0 1.584Zm25 0a.792.792 0 1 0 0-1.584.792.792 0 0 0 0 1.584Zm25 0a.792.792 0 1 0 0-1.584.792.792 0 0 0 0 1.584Zm25 0a.792.792 0 1 0 0-1.584.792.792 0 0 0 0 1.584Zm25 0a.792.792 0 1 0 0-1.584.792.792 0 0 0 0 1.584Zm25 0a.792.792 0 1 0 0-1.584.792.792 0 0 0 0 1.584Zm25 0a.792.792 0 1 0 0-1.584.792.792 0 0 0 0 1.584Zm25 0a.792.792 0 1 0 0-1.584.792.792 0 0 0 0 1.584Zm25 0a.792.792 0 1 0 0-1.584.792.792 0 0 0 0 1.584Zm25 0a.792.792 0 1 0 0-1.584.792.792 0 0 0 0 1.584Zm25 0a.792.792 0 1 0 0-1.584.792.792 0 0 0 0 1.584Zm25 0a.792.792 0 1 0 0-1.584.792.792 0 0 0 0 1.584Zm25 0a.792.792 0 1 0 0-1.584.792.792 0 0 0 0 1.584Zm25 0a.792.792 0 1 0 0-1.584.792.792 0 0 0 0 1.584Zm25 0a.792.792 0 1 0 0-1.584.792.792 0 0 0 0 1.584Zm25 0a.792.792 0 1 0 0-1.584.792.792 0 0 0 0 1.584Zm-475 25a.792.792 0 1 0 0-1.584.792.792 0 0 0 0 1.584Zm25 0a.792.792 0 1 0 0-1.584.792.792 0 0 0 0 1.584Zm25 0a.792.792 0 1 0 0-1.584.792.792 0 0 0 0 1.584Zm25 0a.792.792 0 1 0 0-1.584.792.792 0 0 0 0 1.584Zm25 0a.792.792 0 1 0 0-1.584.792.792 0 0 0 0 1.584Zm25 0a.792.792 0 1 0 0-1.584.792.792 0 0 0 0 1.584Zm25 0a.792.792 0 1 0 0-1.584.792.792 0 0 0 0 1.584Zm25 0a.792.792 0 1 0 0-1.584.792.792 0 0 0 0 1.584Zm25 0a.792.792 0 1 0 0-1.584.792.792 0 0 0 0 1.584Zm25 0a.792.792 0 1 0 0-1.584.792.792 0 0 0 0 1.584Zm25 0a.792.792 0 1 0 0-1.584.792.792 0 0 0 0 1.584Zm25 0a.792.792 0 1 0 0-1.584.792.792 0 0 0 0 1.584Zm25 0a.792.792 0 1 0 0-1.584.792.792 0 0 0 0 1.584Zm25 0a.792.792 0 1 0 0-1.584.792.792 0 0 0 0 1.584Zm25 0a.792.792 0 1 0 0-1.584.792.792 0 0 0 0 1.584Zm25 0a.792.792 0 1 0 0-1.584.792.792 0 0 0 0 1.584Zm25 0a.792.792 0 1 0 0-1.584.792.792 0 0 0 0 1.584Zm25 0a.792.792 0 1 0 0-1.584.792.792 0 0 0 0 1.584Zm25 0a.792.792 0 1 0 0-1.584.792.792 0 0 0 0 1.584Zm25 0a.792.792 0 1 0 0-1.584.792.792 0 0 0 0 1.584Zm-475 25a.792.792 0 1 0 0-1.584.792.792 0 0 0 0 1.584Zm25 0a.792.792 0 1 0 0-1.584.792.792 0 0 0 0 1.584Zm25 0a.792.792 0 1 0 0-1.584.792.792 0 0 0 0 1.584Zm25 0a.792.792 0 1 0 0-1.584.792.792 0 0 0 0 1.584Zm25 0a.792.792 0 1 0 0-1.584.792.792 0 0 0 0 1.584Zm25 0a.792.792 0 1 0 0-1.584.792.792 0 0 0 0 1.584Zm25 0a.792.792 0 1 0 0-1.584.792.792 0 0 0 0 1.584Zm25 0a.792.792 0 1 0 0-1.584.792.792 0 0 0 0 1.584Zm25 0a.792.792 0 1 0 0-1.584.792.792 0 0 0 0 1.584Zm25 0a.792.792 0 1 0 0-1.584.792.792 0 0 0 0 1.584Zm25 0a.792.792 0 1 0 0-1.584.792.792 0 0 0 0 1.584Zm25 0a.792.792 0 1 0 0-1.584.792.792 0 0 0 0 1.584Zm25 0a.792.792 0 1 0 0-1.584.792.792 0 0 0 0 1.584Zm25 0a.792.792 0 1 0 0-1.584.792.792 0 0 0 0 1.584Zm25 0a.792.792 0 1 0 0-1.584.792.792 0 0 0 0 1.584Zm25 0a.792.792 0 1 0 0-1.584.792.792 0 0 0 0 1.584Zm25 0a.792.792 0 1 0 0-1.584.792.792 0 0 0 0 1.584Zm25 0a.792.792 0 1 0 0-1.584.792.792 0 0 0 0 1.584Zm25 0a.792.792 0 1 0 0-1.584.792.792 0 0 0 0 1.584Zm25 0a.792.792 0 1 0 0-1.584.792.792 0 0 0 0 1.584Zm-475 25a.791.791 0 1 0 .002-1.582.791.791 0 0 0-.002 1.582Zm25 0a.791.791 0 1 0 .002-1.582.791.791 0 0 0-.002 1.582Zm25 0a.791.791 0 1 0 .002-1.582.791.791 0 0 0-.002 1.582Zm25 0a.791.791 0 1 0 .002-1.582.791.791 0 0 0-.002 1.582Zm25 0a.791.791 0 1 0 .002-1.582.791.791 0 0 0-.002 1.582Zm25 0a.791.791 0 1 0 .002-1.582.791.791 0 0 0-.002 1.582Zm25 0a.791.791 0 1 0 .002-1.582.791.791 0 0 0-.002 1.582Zm25 0a.791.791 0 1 0 .002-1.582.791.791 0 0 0-.002 1.582Zm25 0a.791.791 0 1 0 .002-1.582.791.791 0 0 0-.002 1.582Zm25 0a.791.791 0 1 0 .002-1.582.791.791 0 0 0-.002 1.582Zm25 0a.791.791 0 1 0 .002-1.582.791.791 0 0 0-.002 1.582Zm25 0a.791.791 0 1 0 .002-1.582.791.791 0 0 0-.002 1.582Zm25 0a.791.791 0 1 0 .002-1.582.791.791 0 0 0-.002 1.582Zm25 0a.791.791 0 1 0 .002-1.582.791.791 0 0 0-.002 1.582Zm25 0a.791.791 0 1 0 .002-1.582.791.791 0 0 0-.002 1.582Zm25 0a.791.791 0 1 0 .002-1.582.791.791 0 0 0-.002 1.582Zm25 0a.791.791 0 1 0 .002-1.582.791.791 0 0 0-.002 1.582Zm25 0a.791.791 0 1 0 .002-1.582.791.791 0 0 0-.002 1.582Zm25 0a.791.791 0 1 0 .002-1.582.791.791 0 0 0-.002 1.582Zm25 0a.791.791 0 1 0 .002-1.582.791.791 0 0 0-.002 1.582Zm-475 25a.792.792 0 1 0 0-1.584.792.792 0 0 0 0 1.584Zm25 0a.792.792 0 1 0 0-1.584.792.792 0 0 0 0 1.584Zm25 0a.792.792 0 1 0 0-1.584.792.792 0 0 0 0 1.584Zm25 0a.792.792 0 1 0 0-1.584.792.792 0 0 0 0 1.584Zm25 0a.792.792 0 1 0 0-1.584.792.792 0 0 0 0 1.584Zm25 0a.792.792 0 1 0 0-1.584.792.792 0 0 0 0 1.584Zm25 0a.792.792 0 1 0 0-1.584.792.792 0 0 0 0 1.584Zm25 0a.792.792 0 1 0 0-1.584.792.792 0 0 0 0 1.584Zm25 0a.792.792 0 1 0 0-1.584.792.792 0 0 0 0 1.584Zm25 0a.792.792 0 1 0 0-1.584.792.792 0 0 0 0 1.584Zm25 0a.792.792 0 1 0 0-1.584.792.792 0 0 0 0 1.584Zm25 0a.792.792 0 1 0 0-1.584.792.792 0 0 0 0 1.584Zm25 0a.792.792 0 1 0 0-1.584.792.792 0 0 0 0 1.584Zm25 0a.792.792 0 1 0 0-1.584.792.792 0 0 0 0 1.584Zm25 0a.792.792 0 1 0 0-1.584.792.792 0 0 0 0 1.584Zm25 0a.792.792 0 1 0 0-1.584.792.792 0 0 0 0 1.584Zm25 0a.792.792 0 1 0 0-1.584.792.792 0 0 0 0 1.584Zm25 0a.792.792 0 1 0 0-1.584.792.792 0 0 0 0 1.584Zm25 0a.792.792 0 1 0 0-1.584.792.792 0 0 0 0 1.584Zm25 0a.792.792 0 1 0 0-1.584.792.792 0 0 0 0 1.584Zm-475 25a.791.791 0 1 0 .002-1.582.791.791 0 0 0-.002 1.582Zm25 0a.791.791 0 1 0 .002-1.582.791.791 0 0 0-.002 1.582Zm25 0a.791.791 0 1 0 .002-1.582.791.791 0 0 0-.002 1.582Zm25 0a.791.791 0 1 0 .002-1.582.791.791 0 0 0-.002 1.582Zm25 0a.791.791 0 1 0 .002-1.582.791.791 0 0 0-.002 1.582Zm25 0a.791.791 0 1 0 .002-1.582.791.791 0 0 0-.002 1.582Zm25 0a.791.791 0 1 0 .002-1.582.791.791 0 0 0-.002 1.582Zm25 0a.791.791 0 1 0 .002-1.582.791.791 0 0 0-.002 1.582Zm25 0a.791.791 0 1 0 .002-1.582.791.791 0 0 0-.002 1.582Zm25 0a.791.791 0 1 0 .002-1.582.791.791 0 0 0-.002 1.582Zm25 0a.791.791 0 1 0 .002-1.582.791.791 0 0 0-.002 1.582Zm25 0a.791.791 0 1 0 .002-1.582.791.791 0 0 0-.002 1.582Zm25 0a.791.791 0 1 0 .002-1.582.791.791 0 0 0-.002 1.582Zm25 0a.791.791 0 1 0 .002-1.582.791.791 0 0 0-.002 1.582Zm25 0a.791.791 0 1 0 .002-1.582.791.791 0 0 0-.002 1.582Zm25 0a.791.791 0 1 0 .002-1.582.791.791 0 0 0-.002 1.582Zm25 0a.791.791 0 1 0 .002-1.582.791.791 0 0 0-.002 1.582Zm25 0a.791.791 0 1 0 .002-1.582.791.791 0 0 0-.002 1.582Zm25 0a.791.791 0 1 0 .002-1.582.791.791 0 0 0-.002 1.582Zm25 0a.791.791 0 1 0 .002-1.582.791.791 0 0 0-.002 1.582Zm-475 25a.791.791 0 1 0 .002-1.582.791.791 0 0 0-.002 1.582Zm25 0a.791.791 0 1 0 .002-1.582.791.791 0 0 0-.002 1.582Zm25 0a.791.791 0 1 0 .002-1.582.791.791 0 0 0-.002 1.582Zm25 0a.791.791 0 1 0 .002-1.582.791.791 0 0 0-.002 1.582Zm25 0a.791.791 0 1 0 .002-1.582.791.791 0 0 0-.002 1.582Zm25 0a.791.791 0 1 0 .002-1.582.791.791 0 0 0-.002 1.582Zm25 0a.791.791 0 1 0 .002-1.582.791.791 0 0 0-.002 1.582Zm25 0a.791.791 0 1 0 .002-1.582.791.791 0 0 0-.002 1.582Zm25 0a.791.791 0 1 0 .002-1.582.791.791 0 0 0-.002 1.582Zm25 0a.791.791 0 1 0 .002-1.582.791.791 0 0 0-.002 1.582Zm25 0a.791.791 0 1 0 .002-1.582.791.791 0 0 0-.002 1.582Zm25 0a.791.791 0 1 0 .002-1.582.791.791 0 0 0-.002 1.582Zm25 0a.791.791 0 1 0 .002-1.582.791.791 0 0 0-.002 1.582Zm25 0a.791.791 0 1 0 .002-1.582.791.791 0 0 0-.002 1.582Zm25 0a.791.791 0 1 0 .002-1.582.791.791 0 0 0-.002 1.582Zm25 0a.791.791 0 1 0 .002-1.582.791.791 0 0 0-.002 1.582Zm25 0a.791.791 0 1 0 .002-1.582.791.791 0 0 0-.002 1.582Zm25 0a.791.791 0 1 0 .002-1.582.791.791 0 0 0-.002 1.582Zm25 0a.791.791 0 1 0 .002-1.582.791.791 0 0 0-.002 1.582Zm25 0a.791.791 0 1 0 .002-1.582.791.791 0 0 0-.002 1.582Zm-475 25a.791.791 0 1 0 .002-1.582.791.791 0 0 0-.002 1.582Zm25 0a.791.791 0 1 0 .002-1.582.791.791 0 0 0-.002 1.582Zm25 0a.791.791 0 1 0 .002-1.582.791.791 0 0 0-.002 1.582Zm25 0a.791.791 0 1 0 .002-1.582.791.791 0 0 0-.002 1.582Zm25 0a.791.791 0 1 0 .002-1.582.791.791 0 0 0-.002 1.582Zm25 0a.791.791 0 1 0 .002-1.582.791.791 0 0 0-.002 1.582Zm25 0a.791.791 0 1 0 .002-1.582.791.791 0 0 0-.002 1.582Zm25 0a.791.791 0 1 0 .002-1.582.791.791 0 0 0-.002 1.582Zm25 0a.791.791 0 1 0 .002-1.582.791.791 0 0 0-.002 1.582Zm25 0a.791.791 0 1 0 .002-1.582.791.791 0 0 0-.002 1.582Zm25 0a.791.791 0 1 0 .002-1.582.791.791 0 0 0-.002 1.582Zm25 0a.791.791 0 1 0 .002-1.582.791.791 0 0 0-.002 1.582Zm25 0a.791.791 0 1 0 .002-1.582.791.791 0 0 0-.002 1.582Zm25 0a.791.791 0 1 0 .002-1.582.791.791 0 0 0-.002 1.582Zm25 0a.791.791 0 1 0 .002-1.582.791.791 0 0 0-.002 1.582Zm25 0a.791.791 0 1 0 .002-1.582.791.791 0 0 0-.002 1.582Zm25 0a.791.791 0 1 0 .002-1.582.791.791 0 0 0-.002 1.582Zm25 0a.791.791 0 1 0 .002-1.582.791.791 0 0 0-.002 1.582Zm25 0a.791.791 0 1 0 .002-1.582.791.791 0 0 0-.002 1.582Zm25 0a.791.791 0 1 0 .002-1.582.791.791 0 0 0-.002 1.582Z"/></svg>