<svg xmlns="http://www.w3.org/2000/svg" width="154" height="35" fill="none"><g fill="#878787" clip-path="url(#a)"><path fill-rule="evenodd" d="M13.125 24.5a4.375 4.375 0 0 1-4.375-4.375V0H0v20.125C0 27.373 5.877 33.25 13.125 33.25h9.625V24.5h-9.625Zm26.25-15.75a7.874 7.874 0 1 0 0 15.749 7.874 7.874 0 0 0 0-15.749ZM22.75 16.625C22.75 7.444 30.194 0 39.375 0 48.556 0 56 7.444 56 16.625c0 9.181-7.444 16.625-16.625 16.625-9.181 0-16.625-7.444-16.625-16.625ZM133.875 8.75A7.872 7.872 0 0 0 126 16.625a7.875 7.875 0 1 0 7.875-7.875Zm-16.625 7.875C117.25 7.444 124.694 0 133.875 0c9.181 0 16.625 7.444 16.625 16.625 0 9.181-7.444 16.625-16.625 16.625-9.181 0-16.625-7.444-16.625-16.625ZM74.375 0C65.194 0 57.75 7.444 57.75 16.625c0 9.181 7.444 16.625 16.625 16.625h24.5c1.723 0 3.384-.263 4.947-.749L108.5 35l5.047-9.453a16.629 16.629 0 0 0 1.953-7.819v-1.103C115.5 7.444 108.056 0 98.875 0h-24.5Zm32.375 16.625a7.875 7.875 0 0 0-7.875-7.875h-24.5a7.874 7.874 0 1 0 0 15.75h24.5a7.875 7.875 0 0 0 7.875-7.814v-.061Z" clip-rule="evenodd"/><path d="M154 2.188a2.185 2.185 0 0 1-2.188 2.187 2.186 2.186 0 0 1-2.187-2.188A2.185 2.185 0 0 1 151.812 0 2.186 2.186 0 0 1 154 2.188Z"/></g><defs><clipPath id="a"><path fill="#fff" d="M0 0h154v35H0z"/></clipPath></defs></svg>