<svg xmlns="http://www.w3.org/2000/svg" width="73" height="49" fill="none"><path fill="#878787" d="M46.868 24c0 12.426-10.074 22.5-22.5 22.5-12.427 0-22.5-10.074-22.5-22.5S11.94 1.5 24.368 1.5c12.426 0 22.5 10.074 22.5 22.5Z"/><path fill="#878787" d="M71.132 24c0 12.426-9.975 22.5-22.28 22.5-12.304 0-22.278-10.074-22.278-22.5S36.547 1.5 48.852 1.5c12.304 0 22.28 10.074 22.28 22.5Z"/><path fill="#636363" d="M36.67 42.842C42.81 38.824 46.868 31.886 46.868 24c0-7.885-4.057-14.824-10.198-18.841A22.537 22.537 0 0 0 26.573 24 22.537 22.537 0 0 0 36.67 42.842Z"/></svg>